<svg width="388" height="506" viewBox="0 0 388 506" fill="none" xmlns="http://www.w3.org/2000/svg">
<path d="M4 144.178L136.8 446.667M177.378 4L136.8 457.733M170 461.422L189.323 276.978M210.578 74.0889L189.323 276.978M192.133 66.7111L369.2 502M189.323 276.978C164.437 285.585 127.947 301.324 181.067 295.422C247.467 288.044 288.044 280.667 306.489 221.644C324.933 162.622 291.733 114.667 291.733 151.556C291.733 181.067 301.57 259.763 306.489 295.422C310.178 320.015 322.72 361.822 343.378 332.311C364.036 302.8 359.363 209.348 354.444 166.311C351.985 154.015 344.853 137.538 336 170C324.933 210.578 339.689 339.689 369.2 313.867C371.659 311.407 378.053 302.8 383.956 288.044" stroke="#BAD5DF" stroke-width="7.37778" stroke-linecap="round" stroke-linejoin="round"/>
</svg>
