<svg width="30" height="30" viewBox="0 0 30 30" fill="none" xmlns="http://www.w3.org/2000/svg">
<path d="M7.5 6.20438V4.375C7.5 3.87772 7.69754 3.40081 8.04917 3.04917C8.40081 2.69754 8.87772 2.5 9.375 2.5H25.625C26.1223 2.5 26.5992 2.69754 26.9508 3.04917C27.3025 3.40081 27.5 3.87772 27.5 4.375V20.625C27.5 21.1223 27.3025 21.5992 26.9508 21.9508C26.5992 22.3025 26.1223 22.5 25.625 22.5H23.7606" stroke="#18344D" stroke-width="1.33333"/>
<path d="M21.875 6.25H4.375C3.33947 6.25 2.5 7.08947 2.5 8.125V25.625C2.5 26.6605 3.33947 27.5 4.375 27.5H21.875C22.9105 27.5 23.75 26.6605 23.75 25.625V8.125C23.75 7.08947 22.9105 6.25 21.875 6.25Z" stroke="#18344D" stroke-width="1.33333" stroke-linejoin="round"/>
<path d="M11.525 14.4437L14.8325 11C15.7393 10.0931 17.2306 10.1125 18.1625 11.045C19.0943 11.9769 19.1143 13.4681 18.2075 14.375L17.0137 15.6394M8.4162 17.9669C8.09745 18.2856 7.43808 18.9231 7.43808 18.9231C6.53058 19.83 6.50558 21.4469 7.43808 22.3794C8.36933 23.3106 9.86058 23.3312 10.7681 22.4237L13.9956 19.4937" stroke="#18344D" stroke-width="1.33333" stroke-linecap="round" stroke-linejoin="round"/>
<path d="M11.6644 17.705C11.2492 17.2925 10.998 16.7432 10.9575 16.1594C10.9336 15.8318 10.9803 15.503 11.0946 15.1951C11.209 14.8872 11.3881 14.6076 11.62 14.375M13.9506 16.1631C14.8825 17.095 14.9025 18.5863 13.9956 19.4938" stroke="#18344D" stroke-width="1.33333" stroke-linecap="round" stroke-linejoin="round"/>
</svg>
