<svg width="18" height="18" viewBox="0 0 18 18" fill="none" xmlns="http://www.w3.org/2000/svg">
<g clip-path="url(#clip0_2513_10307)">
<path d="M13.3992 14.618V14.418H13.1992H12.1083H11.9083V14.618C11.9083 14.8543 11.8144 15.0809 11.6474 15.248C11.4803 15.415 11.2537 15.5089 11.0174 15.5089H3.38104C3.14475 15.5089 2.91815 15.415 2.75107 15.248C2.58399 15.0809 2.49013 14.8543 2.49013 14.618V6.98162C2.49013 6.74534 2.58399 6.51873 2.75107 6.35166C2.91815 6.18458 3.14475 6.09071 3.38104 6.09071H3.58104V5.89071V4.7998V4.5998H3.38104C2.74934 4.5998 2.14351 4.85075 1.69684 5.29742C1.25016 5.7441 0.999219 6.34993 0.999219 6.98162V14.618C0.999219 15.2497 1.25016 15.8555 1.69684 16.3022C2.14351 16.7489 2.74934 16.9998 3.38104 16.9998H11.0174C11.6491 16.9998 12.2549 16.7489 12.7016 16.3022C13.1483 15.8555 13.3992 15.2497 13.3992 14.618Z" fill="#0C96E9" stroke="#0C96E9" stroke-width="0.4"/>
<path d="M6.35263 2.75205C6.51971 2.58497 6.74632 2.4911 6.9826 2.4911H14.619C14.8552 2.4911 15.0819 2.58497 15.2489 2.75205C15.416 2.91912 15.5099 3.14573 15.5099 3.38201V11.0184C15.5099 11.2547 15.416 11.4813 15.2489 11.6483C15.0819 11.8154 14.8552 11.9093 14.619 11.9093H6.9826C6.74632 11.9093 6.51971 11.8154 6.35263 11.6483C6.18555 11.4813 6.09169 11.2547 6.09169 11.0184V3.38201C6.09169 3.14573 6.18555 2.91912 6.35263 2.75205ZM14.619 1.0002H6.9826C6.3509 1.0002 5.74508 1.25114 5.2984 1.69781C4.85172 2.14449 4.60078 2.75032 4.60078 3.38201V11.0184C4.60078 11.6501 4.85172 12.2559 5.2984 12.7026C5.74508 13.1493 6.3509 13.4002 6.9826 13.4002H14.619C15.2507 13.4002 15.8565 13.1493 16.3032 12.7026C16.7498 12.2559 17.0008 11.6501 17.0008 11.0184V3.38201C17.0008 2.75032 16.7498 2.14449 16.3032 1.69781C15.8565 1.25114 15.2507 1.0002 14.619 1.0002Z" fill="#0C96E9" stroke="#0C96E9" stroke-width="0.4"/>
</g>
<defs>
<clipPath id="clip0_2513_10307">
<rect width="18" height="18" fill="white"/>
</clipPath>
</defs>
</svg>
