<svg width="18" height="18" viewBox="0 0 18 18" fill="none" xmlns="http://www.w3.org/2000/svg">
<path d="M12.5213 7.6429L12.4506 7.5722L12.3799 7.64288L9.88791 10.1341V1.2002V1.1002H9.78791H8.14581H8.04581V1.2002V10.1341L5.55383 7.64288L5.48312 7.5722L5.41242 7.6429L4.25145 8.80386L4.18074 8.87458L4.25145 8.94529L8.89615 13.59L8.96686 13.6607L9.03757 13.59L13.6823 8.94529L13.753 8.87458L13.6823 8.80386L12.5213 7.6429ZM14.7142 15.0581H3.21949C2.97521 15.0581 2.74094 15.1551 2.56821 15.3279C2.39548 15.5006 2.29844 15.7349 2.29844 15.9791C2.29844 16.2234 2.39548 16.4577 2.56821 16.6304C2.74094 16.8032 2.97521 16.9002 3.21949 16.9002H14.7142C14.9585 16.9002 15.1928 16.8032 15.3655 16.6304C15.5382 16.4577 15.6353 16.2234 15.6353 15.9791C15.6353 15.7349 15.5382 15.5006 15.3655 15.3279C15.1928 15.1551 14.9585 15.0581 14.7142 15.0581Z" fill="#0C96E9" stroke="#0C96E9" stroke-width="0.2"/>
</svg>
