<svg width="24" height="19" viewBox="0 0 24 19" fill="none" xmlns="http://www.w3.org/2000/svg">
<g clip-path="url(#clip0_4625_19658)">
<path d="M11.9993 3C4.36631 3 2.07231 9.617 2.05131 9.684L1.94531 10L2.05031 10.316C2.07231 10.383 4.36631 17 11.9993 17C19.6323 17 21.9263 10.383 21.9473 10.316L22.0533 10L21.9483 9.684C21.9263 9.617 19.6323 3 11.9993 3ZM11.9993 14C9.79331 14 7.99931 12.206 7.99931 10C7.99931 7.794 9.79331 6 11.9993 6C14.2053 6 15.9993 7.794 15.9993 10C15.9993 12.206 14.2053 14 11.9993 14Z" fill="#ACACAC"/>
<path d="M12 7C10.374 7 9 8.374 9 10C9 11.626 10.374 13 12 13C13.626 13 15 11.626 15 10C15 8.374 13.626 7 12 7Z" fill="#ACACAC"/>
<path d="M5 4L19 16" stroke="white" stroke-width="1.5"/>
<path d="M3 1L22.5 18.5" stroke="#ACACAC" stroke-width="1.5"/>
</g>
<defs>
<clipPath id="clip0_4625_19658">
<rect width="24" height="19" fill="white"/>
</clipPath>
</defs>
</svg>
