<svg width="24" height="19" viewBox="0 0 24 19" fill="none" xmlns="http://www.w3.org/2000/svg">
<path d="M11.9993 2.5C4.36631 2.5 2.07231 9.117 2.05131 9.184L1.94531 9.5L2.05031 9.816C2.07231 9.883 4.36631 16.5 11.9993 16.5C19.6323 16.5 21.9263 9.883 21.9473 9.816L22.0533 9.5L21.9483 9.184C21.9263 9.117 19.6323 2.5 11.9993 2.5ZM11.9993 13.5C9.79331 13.5 7.99931 11.706 7.99931 9.5C7.99931 7.294 9.79331 5.5 11.9993 5.5C14.2053 5.5 15.9993 7.294 15.9993 9.5C15.9993 11.706 14.2053 13.5 11.9993 13.5Z" fill="#ACACAC"/>
<path d="M12 6.5C10.374 6.5 9 7.874 9 9.5C9 11.126 10.374 12.5 12 12.5C13.626 12.5 15 11.126 15 9.5C15 7.874 13.626 6.5 12 6.5Z" fill="#ACACAC"/>
</svg>
