<svg width="12" height="12" viewBox="0 0 12 12" fill="none" xmlns="http://www.w3.org/2000/svg">
<path d="M5.27669 1.25915L1.53209 7.74489C1.23252 8.26376 1.59002 8.64312 1.80621 8.76795L2.4548 9.14241C2.70443 8.71002 3.46314 7.99502 4.50088 8.59417C5.53861 9.19332 5.29877 10.2079 5.04913 10.6403L5.69772 11.0147C6.21658 11.3143 6.59594 10.9568 6.72076 10.7406L10.4653 4.25473C10.7649 3.73586 10.4074 3.35649 10.1912 3.23167L9.54261 2.8572C9.29297 3.2896 8.53426 4.0046 7.49653 3.40545C6.45879 2.8063 6.69864 1.79173 6.94827 1.35934L6.29973 0.985029C5.78087 0.685456 5.40151 1.04296 5.27669 1.25915Z" stroke="#7A7A7A" stroke-width="0.8" stroke-linecap="round" stroke-linejoin="round"/>
</svg>
