<svg width="17" height="17" viewBox="0 0 17 17" fill="none" xmlns="http://www.w3.org/2000/svg">
<path d="M13.4577 9.20741C13.2698 9.20741 13.0897 9.28203 12.9568 9.41487C12.824 9.54771 12.7493 9.72788 12.7493 9.91574V10.1849L11.701 9.13657C11.3309 8.76933 10.8306 8.56326 10.3091 8.56326C9.78772 8.56326 9.28742 8.76933 8.91727 9.13657L8.42143 9.63241L6.66477 7.87574C6.28943 7.51846 5.79108 7.31919 5.27289 7.31919C4.7547 7.31919 4.25635 7.51846 3.88102 7.87574L2.83268 8.92407V4.95741C2.83268 4.76954 2.90731 4.58938 3.04015 4.45654C3.17299 4.3237 3.35315 4.24907 3.54102 4.24907H8.49935C8.68721 4.24907 8.86738 4.17444 9.00022 4.04161C9.13305 3.90877 9.20768 3.7286 9.20768 3.54074C9.20768 3.35288 9.13305 3.17271 9.00022 3.03987C8.86738 2.90703 8.68721 2.83241 8.49935 2.83241H3.54102C2.97743 2.83241 2.43693 3.05629 2.03841 3.4548C1.6399 3.85332 1.41602 4.39382 1.41602 4.95741V13.4574C1.41602 14.021 1.6399 14.5615 2.03841 14.96C2.43693 15.3585 2.97743 15.5824 3.54102 15.5824H12.041C12.6046 15.5824 13.1451 15.3585 13.5436 14.96C13.9421 14.5615 14.166 14.021 14.166 13.4574V9.91574C14.166 9.72788 14.0914 9.54771 13.9585 9.41487C13.8257 9.28203 13.6455 9.20741 13.4577 9.20741ZM3.54102 14.1657C3.35315 14.1657 3.17299 14.0911 3.04015 13.9583C2.90731 13.8254 2.83268 13.6453 2.83268 13.4574V10.9287L4.88685 8.87449C4.99091 8.77532 5.12914 8.72 5.27289 8.72C5.41664 8.72 5.55487 8.77532 5.65893 8.87449L7.90435 11.1199L10.9502 14.1657H3.54102ZM12.7493 13.4574C12.7483 13.593 12.7036 13.7247 12.6218 13.8328L9.42727 10.6241L9.9231 10.1282C9.97388 10.0764 10.0345 10.0352 10.1014 10.0071C10.1683 9.97901 10.2401 9.96453 10.3127 9.96453C10.3852 9.96453 10.4571 9.97901 10.524 10.0071C10.5909 10.0352 10.6515 10.0764 10.7023 10.1282L12.7493 12.1895V13.4574ZM16.0856 3.03782L13.9606 0.912822C13.8932 0.848335 13.8138 0.797785 13.7268 0.764072C13.5544 0.693226 13.361 0.693226 13.1885 0.764072C13.1016 0.797785 13.0221 0.848335 12.9548 0.912822L10.8298 3.03782C10.6964 3.1712 10.6215 3.35211 10.6215 3.54074C10.6215 3.72937 10.6964 3.91027 10.8298 4.04366C10.9631 4.17704 11.1441 4.25197 11.3327 4.25197C11.5213 4.25197 11.7022 4.17704 11.8356 4.04366L12.7493 3.12282V7.08241C12.7493 7.27027 12.824 7.45043 12.9568 7.58327C13.0897 7.71611 13.2698 7.79074 13.4577 7.79074C13.6455 7.79074 13.8257 7.71611 13.9585 7.58327C14.0914 7.45043 14.166 7.27027 14.166 7.08241V3.12282L15.0798 4.04366C15.1456 4.11005 15.224 4.16274 15.3103 4.1987C15.3966 4.23466 15.4892 4.25318 15.5827 4.25318C15.6762 4.25318 15.7688 4.23466 15.8551 4.1987C15.9414 4.16274 16.0197 4.11005 16.0856 4.04366C16.152 3.97781 16.2047 3.89946 16.2406 3.81315C16.2766 3.72683 16.2951 3.63425 16.2951 3.54074C16.2951 3.44723 16.2766 3.35465 16.2406 3.26833C16.2047 3.18201 16.152 3.10367 16.0856 3.03782Z" fill="#ACACAC"/>
</svg>
