<svg width="18" height="18" viewBox="0 0 18 18" fill="none" xmlns="http://www.w3.org/2000/svg">
<path d="M5.4787 10.3571L5.5494 10.4278L5.62011 10.3571L8.11209 7.86591L8.11209 16.7998L8.11209 16.8998L8.21209 16.8998L9.85419 16.8998L9.95419 16.8998L9.95419 16.7998L9.95419 7.86591L12.4462 10.3571L12.5169 10.4278L12.5876 10.3571L13.7485 9.19614L13.8193 9.12542L13.7485 9.05471L9.10385 4.41002L9.03314 4.33931L8.96243 4.41002L4.31774 9.05471L4.24703 9.12542L4.31774 9.19613L5.4787 10.3571ZM3.28577 2.94191L14.7805 2.94191C15.0248 2.94191 15.2591 2.84487 15.4318 2.67214C15.6045 2.49941 15.7016 2.26513 15.7016 2.02086C15.7016 1.77658 15.6045 1.5423 15.4318 1.36957C15.2591 1.19684 15.0248 1.0998 14.7805 1.0998L3.28577 1.0998C3.0415 1.0998 2.80722 1.19684 2.63449 1.36957C2.46176 1.5423 2.36472 1.77658 2.36472 2.02085C2.36472 2.26513 2.46176 2.49941 2.63449 2.67214C2.80722 2.84487 3.0415 2.94191 3.28577 2.94191Z" fill="#0C96E9" stroke="#0C96E9" stroke-width="0.2"/>
</svg>
