<svg width="30" height="30" viewBox="0 0 30 30" fill="none" xmlns="http://www.w3.org/2000/svg">
<path d="M0.640234 14.8707C0.639531 17.3997 1.30328 19.869 2.56539 22.0455L0.519531 29.482L8.16391 27.4865C10.2782 28.6324 12.6472 29.2328 15.0545 29.233H15.0609C23.0079 29.233 29.477 22.7951 29.4804 14.8821C29.4819 11.0476 27.9834 7.442 25.2606 4.72931C22.5384 2.01685 18.9179 0.522258 15.0603 0.520508C7.11227 0.520508 0.643633 6.95807 0.640352 14.8707" fill="url(#paint0_linear_5087_20237)"/>
<path d="M0.125391 14.865C0.12457 17.4849 0.812109 20.0425 2.11922 22.297L0 30L7.91848 27.933C10.1003 29.1173 12.5568 29.7417 15.0564 29.7426H15.0628C23.295 29.7426 29.9965 23.0731 30 14.8769C30.0014 10.9047 28.4489 7.1694 25.6289 4.35953C22.8086 1.55001 19.0586 0.00163331 15.0628 0C6.82922 0 0.128789 6.66856 0.125508 14.865H0.125391ZM4.84102 21.9087L4.54535 21.4415C3.30246 19.474 2.64645 17.2005 2.64738 14.8659C2.65008 8.05325 8.2193 2.51063 15.0675 2.51063C18.3839 2.51203 21.5006 3.79907 23.8448 6.13423C26.1889 8.46963 27.4788 11.5741 27.478 14.8759C27.475 21.6886 21.9056 27.2319 15.0628 27.2319H15.0579C12.8298 27.2307 10.6446 26.635 8.73891 25.5093L8.28539 25.2416L3.58641 26.4681L4.84102 21.9086V21.9087Z" fill="url(#paint1_linear_5087_20237)"/>
<path d="M11.3293 8.65065C11.0497 8.03198 10.7554 8.01949 10.4895 8.00864C10.2718 7.99931 10.0229 8.00001 9.77422 8.00001C9.52531 8.00001 9.1209 8.09323 8.77906 8.4648C8.43687 8.83673 7.47266 9.73552 7.47266 11.5635C7.47266 13.3917 8.81012 15.1583 8.99656 15.4065C9.18324 15.6542 11.5786 19.5256 15.3721 21.0149C18.525 22.2526 19.1666 22.0064 19.8508 21.9444C20.5352 21.8825 22.0591 21.0458 22.37 20.1782C22.6811 19.3107 22.6811 18.567 22.5878 18.4116C22.4946 18.2568 22.2457 18.1638 21.8724 17.9781C21.4991 17.7923 19.6641 16.8934 19.3221 16.7694C18.9799 16.6455 18.7311 16.5836 18.4822 16.9557C18.2333 17.3271 17.5186 18.1638 17.3007 18.4116C17.0831 18.66 16.8652 18.6909 16.4921 18.5051C16.1186 18.3187 14.9166 17.9268 13.4906 16.6611C12.3811 15.6762 11.632 14.46 11.4143 14.0879C11.1965 13.7165 11.3909 13.5151 11.5781 13.33C11.7458 13.1635 11.9514 12.8961 12.1382 12.6792C12.3243 12.4622 12.3864 12.3074 12.5109 12.0596C12.6355 11.8116 12.5731 11.5946 12.48 11.4087C12.3864 11.2229 11.6612 9.38541 11.3293 8.65077" fill="white"/>
<defs>
<linearGradient id="paint0_linear_5087_20237" x1="15" y1="29.482" x2="15" y2="0.520508" gradientUnits="userSpaceOnUse">
<stop stop-color="#1FAF38"/>
<stop offset="1" stop-color="#60D669"/>
</linearGradient>
<linearGradient id="paint1_linear_5087_20237" x1="15" y1="30" x2="15" y2="0" gradientUnits="userSpaceOnUse">
<stop stop-color="#F9F9F9"/>
<stop offset="1" stop-color="white"/>
</linearGradient>
</defs>
</svg>
